<svg xmlns="http://www.w3.org/2000/svg" xmlns:xlink="http://www.w3.org/1999/xlink" width="170" zoomAndPan="magnify" viewBox="0 0 127.5 38.249999" height="51" preserveAspectRatio="xMidYMid meet" version="1.0"><defs><clipPath id="3dc6723d37"><path d="M 91.0625 5.058594 L 121 5.058594 L 121 27.324219 L 91.0625 27.324219 Z M 91.0625 5.058594 " clip-rule="nonzero"/></clipPath><clipPath id="ef82e6c027"><path d="M 89.925781 8.277344 L 118.824219 1.273438 L 123.824219 21.910156 L 94.929688 28.914062 Z M 89.925781 8.277344 " clip-rule="nonzero"/></clipPath><clipPath id="545722169c"><path d="M 89.925781 8.277344 L 118.824219 1.273438 L 123.824219 21.910156 L 94.929688 28.914062 Z M 89.925781 8.277344 " clip-rule="nonzero"/></clipPath><clipPath id="8e7dce2437"><path d="M 5.15625 13.378906 L 12.238281 13.378906 L 12.238281 20.460938 L 5.15625 20.460938 Z M 5.15625 13.378906 " clip-rule="nonzero"/></clipPath></defs><g clip-path="url(#3dc6723d37)"><g clip-path="url(#ef82e6c027)"><g clip-path="url(#545722169c)"><path fill="#23aeeb" d="M 120.480469 11.070312 C 120.585938 11.476562 120.816406 11.71875 121 11.859375 C 120.71875 12.238281 120.4375 12.613281 120.15625 12.988281 C 119.847656 12.757812 119.347656 12.265625 119.125 11.4375 C 118.605469 12.132812 118.082031 12.824219 117.546875 13.511719 C 116.941406 14.292969 116.324219 15.070312 115.699219 15.839844 C 115.070312 16.609375 114.433594 17.375 113.789062 18.128906 C 113.140625 18.882812 112.480469 19.625 111.804688 20.359375 C 111.128906 21.09375 110.4375 21.8125 109.722656 22.511719 C 109.007812 23.214844 108.265625 23.894531 107.480469 24.539062 C 106.695312 25.179688 105.871094 25.792969 104.933594 26.296875 C 104.464844 26.542969 103.960938 26.765625 103.394531 26.90625 C 103.109375 26.972656 102.808594 27.015625 102.488281 27.011719 C 102.328125 27.007812 102.167969 26.992188 102 26.960938 C 101.835938 26.929688 101.671875 26.882812 101.511719 26.816406 C 101.351562 26.75 101.199219 26.664062 101.054688 26.566406 C 100.925781 26.46875 100.796875 26.378906 100.683594 26.257812 C 100.558594 26.148438 100.457031 26.015625 100.359375 25.886719 C 100.3125 25.816406 100.269531 25.75 100.222656 25.679688 C 100.199219 25.648438 100.179688 25.609375 100.164062 25.574219 L 100.109375 25.46875 C 99.96875 25.175781 99.875 24.871094 99.828125 24.574219 L 99.808594 24.464844 L 99.796875 24.355469 C 99.789062 24.28125 99.777344 24.207031 99.773438 24.132812 C 99.769531 23.992188 99.757812 23.847656 99.765625 23.703125 C 99.777344 23.140625 99.867188 22.609375 99.984375 22.09375 C 100.105469 21.582031 100.257812 21.089844 100.421875 20.605469 C 100.761719 19.640625 101.15625 18.714844 101.566406 17.808594 C 101.980469 16.898438 102.410156 16.003906 102.835938 15.117188 C 103.261719 14.226562 103.683594 13.339844 104.074219 12.453125 C 104.46875 11.5625 104.835938 10.667969 105.101562 9.773438 C 105.230469 9.324219 105.332031 8.878906 105.382812 8.449219 L 105.398438 8.289062 L 105.402344 8.210938 L 105.402344 8.132812 C 105.40625 8.082031 105.410156 8.03125 105.410156 7.980469 L 105.402344 7.832031 C 105.386719 7.636719 105.355469 7.460938 105.300781 7.304688 C 105.242188 7.15625 105.164062 7.035156 105.066406 6.929688 C 105.039062 6.90625 105.015625 6.875 104.980469 6.855469 L 104.9375 6.820312 C 104.925781 6.808594 104.914062 6.792969 104.890625 6.785156 C 104.855469 6.761719 104.820312 6.738281 104.78125 6.714844 L 104.664062 6.65625 C 104.507812 6.582031 104.335938 6.53125 104.152344 6.503906 C 103.96875 6.476562 103.773438 6.476562 103.570312 6.492188 C 103.167969 6.519531 102.742188 6.636719 102.324219 6.785156 C 101.902344 6.941406 101.484375 7.140625 101.074219 7.363281 C 100.253906 7.8125 99.464844 8.359375 98.699219 8.941406 C 97.933594 9.523438 97.195312 10.152344 96.476562 10.804688 C 95.757812 11.457031 95.054688 12.132812 94.371094 12.828125 C 94.03125 13.175781 93.695312 13.527344 93.359375 13.886719 C 93.195312 14.0625 93.03125 14.242188 92.867188 14.421875 C 92.703125 14.601562 92.539062 14.785156 92.386719 14.960938 L 91.324219 14.046875 C 91.496094 13.847656 91.660156 13.667969 91.828125 13.480469 C 91.996094 13.296875 92.164062 13.113281 92.335938 12.929688 C 92.675781 12.5625 93.019531 12.203125 93.371094 11.847656 C 94.074219 11.132812 94.792969 10.4375 95.535156 9.765625 C 96.277344 9.089844 97.042969 8.441406 97.847656 7.824219 C 98.652344 7.210938 99.492188 6.632812 100.402344 6.132812 C 100.859375 5.886719 101.335938 5.660156 101.839844 5.472656 C 102.347656 5.289062 102.882812 5.136719 103.460938 5.09375 C 103.753906 5.070312 104.050781 5.070312 104.355469 5.117188 C 104.664062 5.164062 104.96875 5.25 105.261719 5.386719 C 105.332031 5.421875 105.402344 5.457031 105.476562 5.496094 L 105.675781 5.625 C 105.710938 5.644531 105.742188 5.671875 105.777344 5.695312 L 105.878906 5.777344 C 105.949219 5.828125 106.007812 5.890625 106.070312 5.953125 C 106.3125 6.199219 106.5 6.507812 106.613281 6.816406 C 106.730469 7.128906 106.78125 7.441406 106.800781 7.738281 L 106.808594 7.960938 C 106.808594 8.035156 106.808594 8.105469 106.808594 8.175781 L 106.804688 8.285156 L 106.796875 8.390625 L 106.777344 8.601562 C 106.714844 9.152344 106.589844 9.667969 106.445312 10.167969 C 106.148438 11.164062 105.761719 12.097656 105.359375 13.015625 C 104.953125 13.933594 104.527344 14.828125 104.097656 15.722656 C 103.671875 16.613281 103.246094 17.496094 102.84375 18.382812 C 102.441406 19.273438 102.0625 20.164062 101.75 21.066406 C 101.59375 21.515625 101.457031 21.964844 101.351562 22.414062 C 101.246094 22.863281 101.175781 23.308594 101.167969 23.730469 C 101.160156 23.839844 101.171875 23.9375 101.171875 24.042969 C 101.175781 24.09375 101.183594 24.140625 101.1875 24.191406 L 101.195312 24.265625 L 101.207031 24.335938 C 101.238281 24.527344 101.292969 24.699219 101.371094 24.851562 L 101.398438 24.910156 C 101.40625 24.929688 101.414062 24.945312 101.429688 24.964844 C 101.449219 24.996094 101.472656 25.035156 101.492188 25.070312 C 101.546875 25.128906 101.59375 25.195312 101.65625 25.253906 C 101.714844 25.316406 101.789062 25.359375 101.851562 25.414062 C 101.914062 25.457031 101.980469 25.492188 102.046875 25.519531 C 102.113281 25.546875 102.1875 25.566406 102.261719 25.582031 C 102.34375 25.597656 102.425781 25.605469 102.511719 25.605469 C 102.683594 25.609375 102.875 25.585938 103.070312 25.539062 C 103.464844 25.445312 103.875 25.269531 104.277344 25.058594 C 105.082031 24.628906 105.851562 24.0625 106.59375 23.453125 C 107.335938 22.84375 108.046875 22.191406 108.742188 21.511719 C 109.4375 20.832031 110.113281 20.128906 110.773438 19.410156 C 111.4375 18.691406 112.085938 17.957031 112.726562 17.214844 C 113.363281 16.472656 113.992188 15.71875 114.609375 14.957031 C 115.226562 14.195312 115.839844 13.425781 116.441406 12.648438 C 116.964844 11.96875 117.488281 11.285156 118 10.597656 C 117.148438 10.617188 116.539062 10.261719 116.230469 10.03125 C 116.503906 9.667969 116.777344 9.304688 117.046875 8.9375 C 117.234375 9.074219 117.53125 9.222656 117.949219 9.210938 C 118.363281 9.195312 118.90625 9.019531 119.5625 8.511719 L 120.660156 9.285156 C 120.382812 10.089844 120.371094 10.660156 120.480469 11.070312 Z M 120.480469 11.070312 " fill-opacity="1" fill-rule="nonzero"/></g></g></g><g clip-path="url(#8e7dce2437)"><path fill="#23aeeb" d="M 12.214844 15.949219 L 12.214844 17.886719 C 9.867188 18.570312 9.519531 19.789062 9.519531 20.449219 L 7.5 20.449219 C 7.5 19.898438 7.625 18.894531 8.398438 17.925781 L 5.160156 17.925781 L 5.160156 15.90625 L 8.398438 15.90625 C 7.625 14.941406 7.5 13.9375 7.5 13.378906 L 9.519531 13.378906 C 9.519531 14.042969 9.867188 15.261719 12.214844 15.949219 Z M 12.214844 15.949219 " fill-opacity="1" fill-rule="nonzero"/></g><path fill="#ffffff" d="M 17.269531 20.164062 L 19.785156 20.164062 L 19.785156 18.578125 L 22.589844 18.578125 C 24.128906 18.578125 25.183594 17.492188 25.183594 15.984375 C 25.183594 14.476562 24.128906 13.390625 22.589844 13.390625 L 17.269531 13.390625 Z M 19.785156 16.449219 L 19.785156 15.519531 L 22.105469 15.519531 C 22.359375 15.519531 22.667969 15.519531 22.667969 15.984375 C 22.667969 16.449219 22.359375 16.449219 22.105469 16.449219 Z M 19.785156 16.449219 " fill-opacity="1" fill-rule="nonzero"/><path fill="#ffffff" d="M 25.472656 20.164062 L 27.988281 20.164062 L 27.988281 18.578125 L 29.46875 18.578125 L 30.410156 20.164062 L 33.390625 20.164062 L 32.191406 18.21875 C 32.933594 17.785156 33.390625 16.972656 33.390625 15.984375 C 33.390625 14.476562 32.335938 13.390625 30.796875 13.390625 L 25.472656 13.390625 Z M 27.988281 16.449219 L 27.988281 15.519531 L 30.3125 15.519531 C 30.5625 15.519531 30.875 15.519531 30.875 15.984375 C 30.875 16.449219 30.5625 16.449219 30.3125 16.449219 Z M 27.988281 16.449219 " fill-opacity="1" fill-rule="nonzero"/><path fill="#ffffff" d="M 37.84375 20.261719 C 40.8125 20.261719 42.097656 19.117188 42.097656 16.769531 C 42.097656 14.425781 40.8125 13.292969 37.84375 13.292969 C 34.859375 13.292969 33.582031 14.417969 33.582031 16.769531 C 33.582031 19.128906 34.859375 20.261719 37.84375 20.261719 Z M 37.84375 18.132812 C 36.359375 18.132812 36.097656 17.492188 36.097656 16.769531 C 36.097656 16.050781 36.347656 15.421875 37.84375 15.421875 C 39.332031 15.421875 39.582031 16.0625 39.582031 16.769531 C 39.582031 17.484375 39.320312 18.132812 37.84375 18.132812 Z M 37.84375 18.132812 " fill-opacity="1" fill-rule="nonzero"/><path fill="#ffffff" d="M 46.257812 20.261719 C 47.679688 20.261719 48.570312 19.855469 49.140625 19.1875 L 49.328125 20.164062 L 50.777344 20.164062 L 50.777344 16.476562 L 46.386719 16.476562 L 46.386719 17.832031 L 48.203125 17.832031 C 48.105469 18.285156 47.515625 18.421875 46.550781 18.421875 C 45.066406 18.421875 44.808594 17.6875 44.808594 16.863281 C 44.808594 16.050781 45.058594 15.421875 46.550781 15.421875 C 47.613281 15.421875 48.105469 15.742188 48.203125 16.089844 L 50.777344 16.089844 C 50.671875 14.242188 49.257812 13.292969 46.550781 13.292969 C 43.761719 13.292969 42.292969 14.417969 42.292969 16.769531 C 42.292969 19.128906 43.761719 20.261719 46.257812 20.261719 Z M 46.257812 20.261719 " fill-opacity="1" fill-rule="nonzero"/><path fill="#ffffff" d="M 51.066406 20.164062 L 53.585938 20.164062 L 53.585938 18.578125 L 55.066406 18.578125 L 56 20.164062 L 58.984375 20.164062 L 57.785156 18.21875 C 58.53125 17.785156 58.984375 16.972656 58.984375 15.984375 C 58.984375 14.476562 57.929688 13.390625 56.390625 13.390625 L 51.066406 13.390625 Z M 53.585938 16.449219 L 53.585938 15.519531 L 55.90625 15.519531 C 56.15625 15.519531 56.46875 15.519531 56.46875 15.984375 C 56.46875 16.449219 56.15625 16.449219 55.90625 16.449219 Z M 53.585938 16.449219 " fill-opacity="1" fill-rule="nonzero"/><path fill="#ffffff" d="M 59.175781 20.164062 L 61.945312 20.164062 L 62.40625 18.945312 L 65.292969 18.945312 L 65.757812 20.164062 L 68.523438 20.164062 L 65.71875 13.390625 L 61.980469 13.390625 Z M 63.066406 17.203125 L 63.851562 15.132812 L 64.632812 17.203125 Z M 63.066406 17.203125 " fill-opacity="1" fill-rule="nonzero"/><path fill="#ffffff" d="M 68.8125 20.164062 L 71.332031 20.164062 L 71.332031 16.941406 L 73.175781 20.164062 L 74.824219 20.164062 L 76.671875 16.941406 L 76.671875 20.164062 L 79.1875 20.164062 L 79.1875 13.390625 L 76.089844 13.390625 L 74 17.261719 L 71.910156 13.390625 L 68.8125 13.390625 Z M 68.8125 20.164062 " fill-opacity="1" fill-rule="nonzero"/><path fill="#ffffff" d="M 79.476562 20.164062 L 82.242188 20.164062 L 82.710938 18.945312 L 85.59375 18.945312 L 86.058594 20.164062 L 88.824219 20.164062 L 86.019531 13.390625 L 82.285156 13.390625 Z M 83.367188 17.203125 L 84.152344 15.132812 L 84.933594 17.203125 Z M 83.367188 17.203125 " fill-opacity="1" fill-rule="nonzero"/><path fill="#ffffff" d="M 89.113281 20.164062 L 94.148438 20.164062 C 95.78125 20.164062 97.320312 19.082031 97.320312 16.777344 C 97.320312 14.476562 95.78125 13.390625 94.148438 13.390625 L 89.113281 13.390625 Z M 91.632812 18.035156 L 91.632812 15.519531 L 93.371094 15.519531 C 93.914062 15.519531 94.804688 15.519531 94.804688 16.777344 C 94.804688 18.035156 93.914062 18.035156 93.371094 18.035156 Z M 91.632812 18.035156 " fill-opacity="1" fill-rule="nonzero"/><path fill="#ffffff" d="M 101.773438 20.261719 C 104.742188 20.261719 106.027344 19.117188 106.027344 16.769531 C 106.027344 14.425781 104.742188 13.292969 101.773438 13.292969 C 98.792969 13.292969 97.515625 14.417969 97.515625 16.769531 C 97.515625 19.128906 98.792969 20.261719 101.773438 20.261719 Z M 101.773438 18.132812 C 100.292969 18.132812 100.03125 17.492188 100.03125 16.769531 C 100.03125 16.050781 100.28125 15.421875 101.773438 15.421875 C 103.261719 15.421875 103.515625 16.0625 103.515625 16.769531 C 103.515625 17.484375 103.25 18.132812 101.773438 18.132812 Z M 101.773438 18.132812 " fill-opacity="1" fill-rule="nonzero"/><path fill="#ffffff" d="M 106.320312 20.164062 L 108.835938 20.164062 L 108.835938 18.578125 L 110.316406 18.578125 L 111.253906 20.164062 L 114.234375 20.164062 L 113.035156 18.21875 C 113.78125 17.785156 114.234375 16.972656 114.234375 15.984375 C 114.234375 14.476562 113.179688 13.390625 111.644531 13.390625 L 106.320312 13.390625 Z M 108.835938 16.449219 L 108.835938 15.519531 L 111.15625 15.519531 C 111.40625 15.519531 111.71875 15.519531 111.71875 15.984375 C 111.71875 16.449219 111.40625 16.449219 111.15625 16.449219 Z M 108.835938 16.449219 " fill-opacity="1" fill-rule="nonzero"/><path fill="#23aeeb" d="M 20.433594 31.945312 C 23.28125 31.945312 24.601562 30.773438 24.601562 28.363281 L 24.601562 24.898438 L 19.769531 24.898438 L 19.769531 27.082031 L 22.023438 27.082031 L 22.023438 28.363281 C 22.023438 29.097656 21.753906 29.761719 20.433594 29.761719 C 19.113281 29.761719 18.84375 29.105469 18.84375 28.363281 L 16.261719 28.363281 C 16.261719 30.785156 17.574219 31.945312 20.433594 31.945312 Z M 20.433594 31.945312 " fill-opacity="1" fill-rule="nonzero"/><path fill="#23aeeb" d="M 27.433594 24.300781 L 31.292969 23.507812 L 31.292969 22.117188 L 27.433594 22.914062 Z M 29.371094 31.945312 C 32.414062 31.945312 33.738281 30.773438 33.738281 28.363281 L 33.738281 24.898438 L 31.15625 24.898438 L 31.15625 28.363281 C 31.15625 29.097656 30.886719 29.761719 29.371094 29.761719 C 27.847656 29.761719 27.582031 29.105469 27.582031 28.363281 L 27.582031 24.898438 L 25 24.898438 L 25 28.363281 C 25 30.785156 26.3125 31.945312 29.371094 31.945312 Z M 29.371094 31.945312 " fill-opacity="1" fill-rule="nonzero"/><path fill="#23aeeb" d="M 34.132812 31.847656 L 41.28125 31.847656 L 41.28125 29.664062 L 36.714844 29.664062 L 36.714844 24.898438 L 34.132812 24.898438 Z M 34.132812 31.847656 " fill-opacity="1" fill-rule="nonzero"/><path fill="#23aeeb" d="M 41.582031 31.847656 L 44.160156 31.847656 L 44.160156 24.898438 L 41.582031 24.898438 Z M 41.582031 31.847656 " fill-opacity="1" fill-rule="nonzero"/><path fill="#23aeeb" d="M 48.828125 31.945312 C 51.875 31.945312 53.195312 30.773438 53.195312 28.363281 C 53.195312 25.960938 51.875 24.800781 48.828125 24.800781 C 45.769531 24.800781 44.457031 25.949219 44.457031 28.363281 C 44.457031 30.785156 45.769531 31.945312 48.828125 31.945312 Z M 48.828125 29.761719 C 47.304688 29.761719 47.039062 29.105469 47.039062 28.363281 C 47.039062 27.628906 47.296875 26.984375 48.828125 26.984375 C 50.355469 26.984375 50.613281 27.636719 50.613281 28.363281 C 50.613281 29.097656 50.34375 29.761719 48.828125 29.761719 Z M 48.828125 29.761719 " fill-opacity="1" fill-rule="nonzero"/><path fill="#23aeeb" d="M 61.800781 31.945312 C 64.652344 31.945312 66.238281 31.460938 66.238281 29.542969 C 66.238281 27.726562 64.542969 27.539062 61.800781 27.429688 C 60.292969 27.371094 60.046875 27.382812 60.046875 27.113281 C 60.046875 26.84375 60.292969 26.785156 61.503906 26.785156 C 62.765625 26.785156 63.359375 26.863281 63.359375 27.230469 L 65.941406 27.230469 C 65.941406 25.457031 64.414062 24.800781 61.703125 24.800781 C 58.964844 24.800781 57.464844 25.457031 57.464844 26.984375 C 57.464844 28.601562 58.664062 29.117188 61.800781 29.21875 C 63.429688 29.265625 63.65625 29.304688 63.65625 29.605469 C 63.65625 29.863281 63.429688 29.960938 61.902344 29.960938 C 60.261719 29.960938 59.945312 29.734375 59.945312 29.394531 L 57.363281 29.394531 C 57.363281 31.460938 58.953125 31.945312 61.800781 31.945312 Z M 61.800781 31.945312 " fill-opacity="1" fill-rule="nonzero"/><path fill="#23aeeb" d="M 66.4375 31.847656 L 69.277344 31.847656 L 69.753906 30.597656 L 72.710938 30.597656 L 73.191406 31.847656 L 76.027344 31.847656 L 73.148438 24.898438 L 69.316406 24.898438 Z M 70.429688 28.808594 L 71.234375 26.6875 L 72.039062 28.808594 Z M 70.429688 28.808594 " fill-opacity="1" fill-rule="nonzero"/><path fill="#23aeeb" d="M 76.328125 31.847656 L 78.90625 31.847656 L 78.90625 27.75 L 81.90625 31.847656 L 85.28125 31.847656 L 85.28125 24.898438 L 82.699219 24.898438 L 82.699219 29 L 79.699219 24.898438 L 76.328125 24.898438 Z M 76.328125 31.847656 " fill-opacity="1" fill-rule="nonzero"/><path fill="#23aeeb" d="M 88.558594 31.847656 L 91.136719 31.847656 L 91.136719 27.082031 L 94.117188 27.082031 L 94.117188 24.898438 L 85.578125 24.898438 L 85.578125 27.082031 L 88.558594 27.082031 Z M 88.558594 31.847656 " fill-opacity="1" fill-rule="nonzero"/><path fill="#23aeeb" d="M 98.683594 31.945312 C 101.730469 31.945312 103.050781 30.773438 103.050781 28.363281 C 103.050781 25.960938 101.730469 24.800781 98.683594 24.800781 C 95.625 24.800781 94.316406 25.949219 94.316406 28.363281 C 94.316406 30.785156 95.625 31.945312 98.683594 31.945312 Z M 98.683594 29.761719 C 97.164062 29.761719 96.894531 29.105469 96.894531 28.363281 C 96.894531 27.628906 97.152344 26.984375 98.683594 26.984375 C 100.210938 26.984375 100.46875 27.636719 100.46875 28.363281 C 100.46875 29.097656 100.203125 29.761719 98.683594 29.761719 Z M 98.683594 29.761719 " fill-opacity="1" fill-rule="nonzero"/><path fill="#23aeeb" d="M 107.6875 31.945312 C 110.535156 31.945312 112.125 31.460938 112.125 29.542969 C 112.125 27.726562 110.429688 27.539062 107.6875 27.429688 C 106.179688 27.371094 105.929688 27.382812 105.929688 27.113281 C 105.929688 26.84375 106.179688 26.785156 107.390625 26.785156 C 108.648438 26.785156 109.246094 26.863281 109.246094 27.230469 L 111.824219 27.230469 C 111.824219 25.457031 110.300781 24.800781 107.589844 24.800781 C 104.847656 24.800781 103.347656 25.457031 103.347656 26.984375 C 103.347656 28.601562 104.550781 29.117188 107.6875 29.21875 C 109.316406 29.265625 109.542969 29.304688 109.542969 29.605469 C 109.542969 29.863281 109.316406 29.960938 107.789062 29.960938 C 106.148438 29.960938 105.832031 29.734375 105.832031 29.394531 L 103.25 29.394531 C 103.25 31.460938 104.839844 31.945312 107.6875 31.945312 Z M 107.6875 31.945312 " fill-opacity="1" fill-rule="nonzero"/></svg>